<?xml version="1.0" encoding="UTF-8"?>
<svg width="20px" height="16px" viewBox="0 0 20 16" version="1.1" xmlns="http://www.w3.org/2000/svg" xmlns:xlink="http://www.w3.org/1999/xlink">
    <title>account-framework</title>
    <g id="Page-1" stroke="none" stroke-width="1" fill="none" fill-rule="evenodd">
        <g id="account-framework" fill="#FFFFFF" fill-rule="nonzero">
            <path d="M15.7803,0.46969 C15.6396,0.32898 15.4489,0.25 15.25,0.25 L0.749961,0.2509 C0.335742,0.25094 0,0.58664 0,1.0009 L0,12 C0,12.4142 0.335781,12.75 0.75,12.75 L5.5,12.75 L5.5,14.25 L4.75,14.25 C4.33578,14.25 4,14.5858 4,15 C4,15.4142 4.33578,15.75 4.75,15.75 L6.25,15.75 L9.12898,15.75 C9.04574,15.5152 9,15.2629 9,15 C9,14.7473 9.0157,14.497 9.04551,14.25 C9.10816,13.7318 9.23496,13.2284 9.41992,12.75 C9.51957,12.4923 9.63594,12.2417 9.76844,12 C9.91145,11.7389 10.0732,11.4884 10.2522,11.25 C10.4568,10.9775 10.6838,10.7208 10.932,10.4835 C10.6489,9.8698 10.5,9.197 10.5,8.5 C10.5,6.13605 12.236,4.17012 14.5,3.80941 C14.7445,3.77051 14.9949,3.75 15.25,3.75 C15.5052,3.75 15.7556,3.77051 16,3.80941 L16,1 C16,0.80105 15.921,0.61031 15.7803,0.46969 Z" id="Path"></path>
            <path d="M17.5162,10.8264 C18.1225,10.2357 18.5,9.4113 18.5,8.5 C18.5,6.96609 17.4316,5.67793 16,5.33836 C15.7591,5.28117 15.5081,5.25 15.25,5.25 C14.9918,5.25 14.7409,5.28113 14.5,5.33836 C13.0684,5.67797 12,6.96617 12,8.5 C12,9.4113 12.3775,10.2357 12.9838,10.8264 C12.7567,10.9502 12.5409,11.0921 12.338,11.25 C12.1854,11.3688 12.0406,11.4968 11.9036,11.6329 C11.7864,11.7495 11.6751,11.8718 11.5704,12 C11.4554,12.1407 11.3485,12.2882 11.25,12.4416 C11.1857,12.5419 11.1251,12.6448 11.0683,12.75 C10.8197,13.21 10.645,13.7152 10.5599,14.25 C10.5209,14.4945 10.5,14.7448 10.5,15 C10.5,15.4142 10.8358,15.75 11.25,15.75 L19.25,15.75 C19.6643,15.75 20,15.4142 20,15 C20,13.201 18.9946,11.6323 17.5162,10.8264 Z" id="Path"></path>
        </g>
    </g>
</svg>