<?xml version="1.0" encoding="UTF-8"?>
<svg width="20px" height="16px" viewBox="0 0 20 16" version="1.1" xmlns="http://www.w3.org/2000/svg" xmlns:xlink="http://www.w3.org/1999/xlink">
    <title>data-protection</title>
    <g id="Page-1" stroke="none" stroke-width="1" fill="none" fill-rule="evenodd">
        <g id="data-protection" fill="#FFFFFF" fill-rule="nonzero">
            <path d="M15.3017,4.71999 C14.4712,2.40065 12.264,0.82315 9.75926,0.82315 C6.53406,0.82315 3.90621,3.4294 3.87172,6.64655 C1.70281,6.85014 0,8.6811 0,10.9023 C0,13.2593 1.91758,15.1769 4.27469,15.1769 L14.7576,15.1769 C17.6482,15.1769 20,12.8251 20,9.9344 C20,7.22741 17.9378,4.99299 15.3017,4.71999 Z M12.582,9.6131 C12.582,11.0782 10.612,12.0344 10.2171,12.2112 C10.1227,12.2535 10.0216,12.2746 9.92043,12.2746 C9.8193,12.2746 9.71816,12.2535 9.62379,12.2112 C9.22891,12.0344 7.25887,11.0782 7.25887,9.6131 L7.25887,6.3869 C7.25887,5.986 7.58387,5.661 7.98477,5.661 L11.8561,5.661 C12.257,5.661 12.582,5.986 12.582,6.3869 L12.582,9.6131 L12.582,9.6131 Z" id="Shape"></path>
        </g>
    </g>
</svg>