<?xml version="1.0" encoding="UTF-8"?>
<svg width="20px" height="20px" viewBox="0 0 20 20" version="1.1" xmlns="http://www.w3.org/2000/svg" xmlns:xlink="http://www.w3.org/1999/xlink">
    <title>digital</title>
    <g id="Page-1" stroke="none" stroke-width="1" fill="none" fill-rule="evenodd">
        <g id="digital" fill="#FFFFFF" fill-rule="nonzero">
            <path d="M19.7337,0.872338 C19.5632,0.701791 19.332,0.606049 19.0909,0.606049 L0.909023,0.607142 C0.406953,0.60722 0,1.0141 0,1.51624 L0,14.8485 C0,15.3505 0.407031,15.7576 0.909102,15.7576 L6.66668,15.7576 L6.66668,17.5757 L5.75758,17.5757 C5.25551,17.5757 4.84848,17.9828 4.84848,18.4848 C4.84848,18.9869 5.25551,19.3939 5.75758,19.3939 L7.57574,19.3939 L12.4242,19.3939 L14.2424,19.3939 C14.7445,19.3939 15.1515,18.9869 15.1515,18.4848 C15.1515,17.9828 14.7445,17.5757 14.2424,17.5757 L13.3333,17.5757 L13.3333,15.7576 L19.0909,15.7576 C19.5929,15.7576 20,15.3505 20,14.8485 L20,1.51515 C20,1.27398 19.9043,1.04277 19.7337,0.872338 Z M7.30953,7.0064 L6.13414,8.18179 L7.30949,9.35718 C7.66453,9.71214 7.66453,10.2878 7.30949,10.6428 C7.13203,10.8203 6.89937,10.9091 6.66672,10.9091 C6.43406,10.9091 6.20137,10.8203 6.02395,10.6428 L4.20578,8.8246 C3.85074,8.46964 3.85074,7.89402 4.20578,7.53898 L6.02395,5.72081 C6.37891,5.36585 6.95453,5.36585 7.30957,5.72081 C7.66453,6.07574 7.66453,6.6514 7.30953,7.0064 Z M11.1998,6.51308 L10.5937,10.1494 C10.5196,10.5941 10.1345,10.9092 9.69809,10.9092 C9.64852,10.9092 9.5982,10.9052 9.54762,10.8967 C9.05234,10.8142 8.71781,10.3458 8.80035,9.85054 L9.40641,6.21417 C9.48895,5.7189 9.95727,5.38386 10.4526,5.46691 C10.9478,5.54945 11.2823,6.01781 11.1998,6.51308 Z M15.7943,8.8246 L13.9761,10.6428 C13.7987,10.8203 13.566,10.9091 13.3334,10.9091 C13.1007,10.9091 12.868,10.8203 12.6906,10.6428 C12.3355,10.2878 12.3355,9.71218 12.6906,9.35714 L13.8659,8.18179 L12.6906,7.0064 C12.3355,6.65144 12.3355,6.07577 12.6906,5.72077 C13.0455,5.36581 13.6212,5.36581 13.9762,5.72077 L15.7944,7.53894 C16.1494,7.89398 16.1494,8.46964 15.7943,8.8246 Z" id="Shape"></path>
        </g>
    </g>
</svg>