<?xml version="1.0" encoding="UTF-8"?>
<svg width="20px" height="20px" viewBox="0 0 20 20" version="1.1" xmlns="http://www.w3.org/2000/svg" xmlns:xlink="http://www.w3.org/1999/xlink">
    <title>governance</title>
    <g id="Page-1" stroke="none" stroke-width="1" fill="none" fill-rule="evenodd">
        <g id="governance" fill="#FFFFFF" fill-rule="nonzero">
            <path d="M17.2727,13.9394 L16.5906,13.9394 C16.533,13.7525 16.4577,13.5732 16.3673,13.4031 L16.8505,12.92 C17.2055,12.5651 17.2056,11.9894 16.8506,11.6343 C16.4956,11.2794 15.92,11.2794 15.5649,11.6343 L15.0817,12.1175 C14.9116,12.0271 14.7323,11.9518 14.5454,11.8941 L14.5454,11.2121 C14.5454,10.7101 14.1384,10.303 13.6363,10.303 C13.1342,10.303 12.7272,10.7101 12.7272,11.2121 L12.7272,11.8942 C12.5402,11.9519 12.361,12.0271 12.1909,12.1175 L11.7078,11.6344 C11.3528,11.2794 10.7772,11.2794 10.4221,11.6344 C10.0672,11.9894 10.0672,12.565 10.4221,12.92 L10.9052,13.4031 C10.8149,13.5732 10.7396,13.7525 10.682,13.9395 L9.99996,13.9395 C9.49789,13.9395 9.09085,14.3465 9.09085,14.8486 C9.09085,15.3507 9.49789,15.7577 9.99996,15.7577 L10.6821,15.7577 C10.7397,15.9447 10.8149,16.1239 10.9053,16.2941 L10.4223,16.7771 C10.0673,17.1321 10.0672,17.7077 10.4223,18.0628 C10.5998,18.2403 10.8325,18.3291 11.065,18.3291 C11.2977,18.3291 11.5304,18.2403 11.7079,18.0628 L12.1911,17.5797 C12.3611,17.67 12.5403,17.7453 12.7273,17.803 L12.7273,18.4849 C12.7273,18.987 13.1343,19.394 13.6364,19.394 C14.1385,19.394 14.5455,18.987 14.5455,18.4849 L14.5455,17.8028 C14.7325,17.7452 14.9117,17.67 15.0818,17.5795 L15.5651,18.0627 C15.7426,18.2402 15.9752,18.329 16.2078,18.329 C16.4405,18.329 16.6732,18.2402 16.8507,18.0626 C17.2057,17.7076 17.2056,17.132 16.8506,16.777 L16.3674,16.2939 C16.4578,16.1238 16.533,15.9446 16.5907,15.7576 L17.2727,15.7576 C17.7748,15.7576 18.1818,15.3506 18.1818,14.8485 C18.1818,14.3464 17.7748,13.9394 17.2727,13.9394 Z M13.6363,16.1212 C12.9346,16.1212 12.3636,15.5503 12.3636,14.8485 C12.3636,14.1468 12.9346,13.5758 13.6363,13.5758 C14.3381,13.5758 14.9091,14.1468 14.9091,14.8485 C14.9091,15.5503 14.3381,16.1212 13.6363,16.1212 Z" id="Shape"></path>
            <path d="M10,5.15151 L8.9759,5.15151 C8.88984,4.81842 8.75699,4.50405 8.5859,4.21495 L9.31152,3.48924 C9.66656,3.1342 9.66656,2.55866 9.31152,2.20362 C8.95648,1.84854 8.38094,1.84858 8.0259,2.20362 L7.30027,2.92924 C7.01113,2.75815 6.69676,2.6253 6.36367,2.53924 L6.36367,1.51514 C6.36367,1.01307 5.95664,0.606041 5.45457,0.606041 C4.9525,0.606041 4.54547,1.01307 4.54547,1.51514 L4.54547,2.53924 C4.21238,2.6253 3.89801,2.75811 3.60891,2.92924 L2.8832,2.20362 C2.52816,1.84854 1.95262,1.84858 1.59758,2.20362 C1.24254,2.55866 1.24254,3.13424 1.59758,3.48924 L2.3232,4.21487 C2.15219,4.50401 2.01926,4.81839 1.9332,5.15147 L0.909102,5.15147 C0.407031,5.15151 0,5.55854 0,6.06061 C0,6.56268 0.407031,6.96971 0.909102,6.96971 L1.9332,6.96971 C2.01926,7.3028 2.15211,7.61721 2.32328,7.90639 L1.59758,8.6319 C1.24254,8.98686 1.24254,9.56253 1.5975,9.91753 C1.775,10.0951 2.00773,10.1839 2.24035,10.1839 C2.47297,10.1839 2.70563,10.0952 2.88312,9.91764 L3.60887,9.19202 C3.89801,9.36303 4.21227,9.49588 4.54535,9.58194 L4.54535,10.606 C4.54535,11.1081 4.95238,11.5151 5.45445,11.5151 C5.95652,11.5151 6.36355,11.1081 6.36355,10.606 L6.36355,9.58194 C6.69664,9.49588 7.01102,9.36307 7.30012,9.19194 L8.02582,9.91756 C8.2034,10.0951 8.43602,10.1839 8.66859,10.1839 C8.90125,10.1839 9.13395,10.0951 9.31137,9.91756 C9.66652,9.56249 9.66644,8.9869 9.31148,8.63194 L8.58586,7.90631 C8.75688,7.61717 8.8898,7.3028 8.97586,6.96971 L10,6.96971 C10.5021,6.96971 10.9091,6.56268 10.9091,6.06061 C10.9091,5.55854 10.5021,5.15151 10,5.15151 Z M5.45453,7.87878 C4.45199,7.87878 3.63637,7.06315 3.63637,6.06061 C3.63637,5.05807 4.45199,4.24245 5.45453,4.24245 C6.45707,4.24245 7.2727,5.05807 7.2727,6.06061 C7.2727,7.06315 6.45707,7.87878 5.45453,7.87878 Z" id="Shape"></path>
            <path d="M19.0909,5.45452 C19.593,5.45452 20,5.04749 20,4.54542 C20,4.04335 19.593,3.63631 19.0909,3.63631 L18.6316,3.63631 C18.5993,3.54542 18.5627,3.45651 18.5214,3.3703 L18.8462,3.04545 C19.2013,2.69049 19.2013,2.11483 18.8462,1.75983 C18.4913,1.40487 17.9157,1.40487 17.5606,1.75983 L17.2358,2.08463 C17.1496,2.04331 17.0607,2.00674 16.9698,1.97452 L16.9698,1.51514 C16.9698,1.01307 16.5627,0.606041 16.0607,0.606041 C15.5586,0.606041 15.1516,1.01307 15.1516,1.51514 L15.1516,1.97452 C15.0607,2.00674 14.9717,2.04338 14.8855,2.08463 L14.5607,1.75983 C14.2057,1.40487 13.63,1.40487 13.2751,1.75983 C12.92,2.11479 12.92,2.69049 13.2751,3.04545 L13.5999,3.3703 C13.5585,3.45647 13.522,3.54538 13.4898,3.63631 L13.0304,3.63631 C12.5283,3.63631 12.1213,4.04335 12.1213,4.54542 C12.1213,5.04749 12.5283,5.45452 13.0304,5.45452 L13.4898,5.45452 C13.522,5.54542 13.5586,5.63432 13.5999,5.72053 L13.2751,6.04526 C12.9201,6.40022 12.92,6.97588 13.275,7.33088 C13.4525,7.50846 13.6852,7.59725 13.9178,7.59725 C14.1505,7.59725 14.3831,7.50854 14.5607,7.331 L14.8855,7.0062 C14.9717,7.04752 15.0607,7.08409 15.1516,7.11631 L15.1516,7.57569 C15.1516,8.07776 15.5586,8.48479 16.0607,8.48479 C16.5627,8.48479 16.9698,8.07776 16.9698,7.57569 L16.9698,7.11631 C17.0607,7.08409 17.1496,7.04745 17.2358,7.0062 L17.5606,7.331 C17.7382,7.5085 17.9708,7.59725 18.2034,7.59725 C18.436,7.59725 18.6688,7.50846 18.8462,7.33088 C19.2012,6.97592 19.2012,6.4003 18.8462,6.04526 L18.5214,5.72053 C18.5627,5.63436 18.5992,5.54545 18.6315,5.45452 L19.0909,5.45452 Z M16.0606,5.45452 C15.5593,5.45452 15.1515,5.04671 15.1515,4.54542 C15.1515,4.04413 15.5593,3.63631 16.0606,3.63631 C16.5618,3.63631 16.9697,4.04413 16.9697,4.54542 C16.9697,5.04671 16.5619,5.45452 16.0606,5.45452 Z" id="Shape"></path>
        </g>
    </g>
</svg>