<?xml version="1.0" encoding="UTF-8"?>
<svg width="20px" height="16px" viewBox="0 0 20 16" version="1.1" xmlns="http://www.w3.org/2000/svg" xmlns:xlink="http://www.w3.org/1999/xlink">
    <title>identity-access</title>
    <g id="Page-1" stroke="none" stroke-width="1" fill="none" fill-rule="evenodd">
        <g id="identity-access" fill="#FFFFFF" fill-rule="nonzero">
            <path d="M5.7804,7.25352 C5.63868,7.1118 5.45036,7.03387 5.25005,7.03387 C5.04969,7.03387 4.86141,7.11184 4.71973,7.25352 C4.57801,7.39524 4.50005,7.58352 4.50005,7.78384 C4.50005,7.98419 4.57809,8.1725 4.71969,8.3141 C4.86141,8.4558 5.04981,8.5338 5.25005,8.5338 C5.45028,8.5338 5.63868,8.4558 5.7804,8.3141 C5.922,8.1725 6.00005,7.98415 6.00005,7.78391 C6.00005,7.58352 5.922,7.3952 5.7804,7.25352 Z" id="Path"></path>
            <path d="M15.7803,0.46969 C15.6396,0.32898 15.4489,0.25 15.25,0.25 L0.749961,0.2509 C0.335742,0.25094 0,0.58664 0,1.0009 L0,12 C0,12.4142 0.335781,12.75 0.75,12.75 L5.5,12.75 L5.5,14.25 L4.75,14.25 C4.33578,14.25 4,14.5858 4,15 C4,15.4142 4.33578,15.75 4.75,15.75 L6.25,15.75 L9.12898,15.75 C9.04574,15.5152 9,15.2629 9,15 C9,14.7473 9.0157,14.497 9.04551,14.25 C9.10816,13.7318 9.23496,13.2284 9.41992,12.75 C9.51957,12.4923 9.63594,12.2417 9.76844,12 C9.91145,11.7389 10.0732,11.4884 10.2522,11.25 C10.4568,10.9775 10.6838,10.7208 10.932,10.4835 C10.6489,9.8698 10.5,9.197 10.5,8.5 C10.5,6.13605 12.236,4.17012 14.5,3.80941 C14.7445,3.77051 14.9949,3.75 15.25,3.75 C15.5052,3.75 15.7556,3.77051 16,3.80941 L16,1 C16,0.80105 15.921,0.61031 15.7803,0.46969 Z M8.96231,5.13207 L7.28109,6.81352 C7.42426,7.11266 7.5,7.44242 7.5,7.78387 C7.5,8.3849 7.26594,8.9499 6.8409,9.3749 C6.4159,9.7998 5.8509,10.0338 5.25,10.0338 C4.6491,10.0338 4.0841,9.7998 3.6591,9.3749 C3.23406,8.9498 3,8.3848 3,7.78379 C3,7.18277 3.2341,6.61773 3.6591,6.19277 C4.08398,5.76789 4.64906,5.53383 5.25,5.53383 C5.59148,5.53383 5.92129,5.60957 6.22047,5.75281 L7.37133,4.6018 L7.01613,4.24656 C6.72324,3.95367 6.72324,3.47883 7.01613,3.1859 C7.30898,2.89305 7.78387,2.89305 8.0768,3.1859 L8.96234,4.07145 C9.2552,4.3643 9.2552,4.83914 8.96231,5.13207 Z" id="Shape"></path>
            <path d="M17.5162,10.8264 C18.1225,10.2357 18.5,9.4113 18.5,8.5 C18.5,6.96609 17.4316,5.67793 16,5.33836 C15.7591,5.28117 15.5081,5.25 15.25,5.25 C14.9918,5.25 14.7409,5.28113 14.5,5.33836 C13.0684,5.67797 12,6.96617 12,8.5 C12,9.4113 12.3775,10.2357 12.9838,10.8264 C12.7567,10.9502 12.5409,11.0921 12.338,11.25 C12.1854,11.3688 12.0406,11.4968 11.9036,11.6329 C11.7864,11.7495 11.6751,11.8718 11.5704,12 C11.4554,12.1407 11.3485,12.2882 11.25,12.4416 C11.1857,12.5419 11.1251,12.6448 11.0683,12.75 C10.8197,13.21 10.645,13.7152 10.5599,14.25 C10.5209,14.4945 10.5,14.7448 10.5,15 C10.5,15.4142 10.8358,15.75 11.25,15.75 L19.25,15.75 C19.6643,15.75 20,15.4142 20,15 C20,13.201 18.9946,11.6323 17.5162,10.8264 Z" id="Path"></path>
        </g>
    </g>
</svg>