<?xml version="1.0" encoding="UTF-8"?>
<svg width="20px" height="20px" viewBox="0 0 20 20" version="1.1" xmlns="http://www.w3.org/2000/svg" xmlns:xlink="http://www.w3.org/1999/xlink">
    <title>infrastructure</title>
    <g id="Page-1" stroke="none" stroke-width="1" fill="none" fill-rule="evenodd">
        <g id="infrastructure" fill="#FFFFFF" fill-rule="nonzero">
            <path d="M4.80126,15.2843 L0.767742,15.2843 C0.444148,15.2843 0.181805,15.5467 0.181805,15.8703 L0.181805,19.4141 C0.181805,19.7377 0.444148,20 0.767742,20 L5.38723,20 L5.38723,15.8703 C5.38723,15.5467 5.12489,15.2843 4.80126,15.2843 Z" id="Path"></path>
            <path d="M10.5926,12.0031 L7.145,12.0031 C6.82141,12.0031 6.55907,12.2655 6.55907,12.5891 L6.55907,20 L11.1786,20 L11.1786,12.5891 C11.1786,12.2655 10.9162,12.0031 10.5926,12.0031 Z" id="Path"></path>
            <path d="M18.664,3.16445 L19.8449,1.88281 C20.0027,1.71172 20.0441,1.46367 19.9507,1.25078 C19.8574,1.0375 19.6468,0.9 19.414,0.9 L15.6367,0.9 L15.6367,0.585938 C15.6367,0.2625 15.3746,0 15.0508,0 C14.7273,0 14.4648,0.2625 14.4648,0.585938 L14.4648,7.42188 L12.9363,7.42188 C12.6127,7.42188 12.3504,7.68422 12.3504,8.00781 L12.3504,20 L17.0695,20 C17.3933,20 17.6554,19.7375 17.6554,19.4141 L17.6554,8.00781 C17.6554,7.68437 17.3933,7.42188 17.0695,7.42188 L15.6367,7.42188 L15.6367,5.32539 L19.414,5.32539 C19.6511,5.32539 19.8648,5.18242 19.9554,4.96328 C20.046,4.74414 19.9957,4.4918 19.8277,4.32461 L18.664,3.16445 Z" id="Path"></path>
            <path d="M9.94344,5.03066 C10.0872,5.32058 10.4387,5.43902 10.7287,5.29527 C11.0186,5.15148 11.1371,4.79992 10.9933,4.50999 C9.93102,2.36792 10.0385,2.58386 10.0231,2.55476 C9.91293,2.34671 9.68637,2.22109 9.44508,2.24609 C9.44344,2.24624 9.44176,2.2466 9.44008,2.24679 C9.39215,2.25218 9.52016,2.22706 7.30086,2.6941 C6.98418,2.76074 6.78153,3.07148 6.84813,3.38816 C6.90621,3.66413 7.14969,3.85355 7.4209,3.85355 C7.50246,3.85355 7.44993,3.86031 8.48043,3.64343 C7.71207,5.15163 6.71204,6.52609 5.49762,7.74058 C4.00922,9.22902 2.27993,10.3959 0.357776,11.2089 C0.0597295,11.335 -0.0796846,11.6787 0.0463701,11.9768 C0.172503,12.2751 0.516448,12.4142 0.814261,12.2882 C2.8761,11.4162 4.73059,10.1649 6.32621,8.56921 C7.62672,7.2687 8.69829,5.79663 9.52204,4.18101 L9.94344,5.03066 Z" id="Path"></path>
        </g>
    </g>
</svg>