<?xml version="1.0" encoding="UTF-8"?>
<svg width="20px" height="14px" viewBox="0 0 20 14" version="1.1" xmlns="http://www.w3.org/2000/svg" xmlns:xlink="http://www.w3.org/1999/xlink">
    <title>monitoring</title>
    <g id="Page-1" stroke="none" stroke-width="1" fill="none" fill-rule="evenodd">
        <g id="monitoring" fill="#FFFFFF" fill-rule="nonzero">
            <path d="M10.2174,12.4348 L9.56523,12.4348 L9.56523,11.1304 L9.71574,11.1304 C9.66504,11.0933 9.61484,11.0554 9.56523,11.0169 C9.35031,10.8496 9.14574,10.6698 8.95266,10.4783 C8.74633,10.2736 8.55316,10.0558 8.37449,9.8261 C7.48633,8.6845 6.95652,7.2508 6.95652,5.69568 C6.95652,4.14064 7.48621,2.70716 8.37422,1.5656 C8.55285,1.33591 8.74605,1.11798 8.95234,0.91333 C9.18996,0.67767 9.44508,0.45962 9.71539,0.26115 L0.652148,0.26166 C0.291992,0.26169 0,0.55361 0,0.9138 L0,10.4782 C0,10.8384 0.291992,11.1304 0.652187,11.1304 L4.78262,11.1304 L4.78262,12.4347 L4.13043,12.4347 C3.77027,12.4347 3.47824,12.7267 3.47824,13.0869 C3.47824,13.4471 3.77023,13.7391 4.13043,13.7391 L5.43477,13.7391 L8.91301,13.7391 L10.2173,13.7391 C10.5775,13.7391 10.8695,13.4471 10.8695,13.0869 C10.8695,12.7268 10.5776,12.4348 10.2174,12.4348 Z" id="Path"></path>
            <path d="M16.4354,6.38907 C16.3917,6.07146 16.1198,5.82661 15.7901,5.82661 L15.6838,5.82661 L15.9577,5.55274 C16.2124,5.29806 16.2124,4.88513 15.9578,4.6304 C15.7858,4.45845 15.5418,4.40306 15.3229,4.46333 C15.2011,4.28657 15.0515,4.13052 14.8799,4.00192 C15.0857,3.74587 15.07,3.37056 14.8324,3.13294 C14.8157,3.1163 14.7983,3.10091 14.7804,3.08638 C14.6517,2.98239 14.4926,2.93521 14.3359,2.94364 C14.181,2.952 14.0284,3.01466 13.91,3.13294 L13.7032,3.33981 L13.6956,3.3322 L13.4963,3.13298 C13.3748,3.01142 13.2172,2.94853 13.0579,2.94302 C12.9122,2.93794 12.7656,2.98142 12.6435,3.07345 C12.6194,3.09161 12.5959,3.11099 12.574,3.13286 C12.3363,3.37048 12.3206,3.74583 12.5264,4.00192 C12.3545,4.13075 12.2046,4.2872 12.0827,4.46431 C11.8628,4.40224 11.6168,4.45735 11.4437,4.6304 C11.1891,4.88509 11.1891,5.29802 11.4438,5.55274 L11.7177,5.82661 L11.601,5.82661 C11.2714,5.82661 10.9996,6.07138 10.9557,6.38892 C10.9516,6.41841 10.9488,6.44821 10.9488,6.4788 C10.9488,6.67618 11.0369,6.85274 11.1755,6.97235 C11.2897,7.0709 11.4382,7.1309 11.6009,7.1309 L11.8465,7.1309 C11.8564,7.1595 11.8671,7.1877 11.8783,7.2157 L11.7625,7.3315 C11.6865,7.4074 11.6338,7.4976 11.6031,7.5933 C11.531,7.8186 11.5838,8.0751 11.7625,8.2538 C11.8899,8.3811 12.0568,8.4448 12.2236,8.4448 C12.3641,8.4448 12.5043,8.3991 12.6211,8.309 C12.6431,8.292 12.6646,8.274 12.6848,8.2538 L12.7408,8.1978 C13.0234,8.3568 13.3489,8.4483 13.6955,8.4492 C13.6972,8.4492 13.6989,8.4493 13.7006,8.4493 C14.0464,8.4493 14.3714,8.3591 14.6539,8.2016 L14.7061,8.2538 C14.7263,8.274 14.7478,8.292 14.7699,8.309 C14.8867,8.3991 15.0268,8.4449 15.1673,8.4449 C15.3342,8.4449 15.5011,8.3811 15.6284,8.2538 C15.8072,8.0751 15.8599,7.8186 15.7878,7.5934 C15.7572,7.4977 15.7044,7.4075 15.6285,7.3315 L15.52,7.2231 C15.5324,7.1927 15.544,7.162 15.5548,7.1309 L15.79,7.1309 C15.9528,7.1309 16.1013,7.0709 16.2156,6.9722 C16.3542,6.85263 16.4422026,6.6761 16.4422026,6.47876 C16.4423,6.44825 16.4395,6.41849 16.4354,6.38907 Z" id="Path"></path>
            <path d="M19.8089,11.2671 L18.7217,10.1798 L18.26,9.7181 L17.7983,9.2564 C18.6278,8.302 19.1305,7.0564 19.1305,5.69566 C19.1305,2.69886 16.6925,0.26089 13.6956,0.26089 L13.6956,0.26089 C12.7626,0.26089 11.8839,0.49734 11.1159,0.91323 C10.7763,1.0971 10.4586,1.31628 10.1674,1.56546 C9.00126,2.56296 8.26083,4.04441 8.26083,5.69562 C8.26083,7.347 9.00134,8.8285 10.1675,9.826 C10.4588,10.0752 10.7765,10.2944 11.1161,10.4782 C11.884,10.8941 12.7627,11.1304 13.6956,11.1304 C14.8621,11.1304 15.9438,10.76089 16.8302,10.133 L17.2969,10.5998 L17.7627,11.0655 L18.8866,12.1894 C19.0139,12.3168 19.1809,12.3805 19.3477,12.3805 C19.5146,12.3805 19.6816,12.3168 19.8089,12.1894 C20.0637,11.9347 20.0637,11.5218 19.8089,11.2671 Z M13.6956,9.826 C11.4181,9.826 9.56521,7.9731 9.56521,5.69562 C9.56521,3.41812 11.4181,1.56519 13.6956,1.56519 C15.9732,1.56519 17.8262,3.41812 17.8262,5.69562 C17.8262,7.9731 15.9732,9.826 13.6956,9.826 Z" id="Shape"></path>
        </g>
    </g>
</svg>