<?xml version="1.0" encoding="UTF-8"?>
<svg width="20px" height="20px" viewBox="0 0 20 20" version="1.1" xmlns="http://www.w3.org/2000/svg" xmlns:xlink="http://www.w3.org/1999/xlink">
    <title>network</title>
    <g id="Page-1" stroke="none" stroke-width="1" fill="none" fill-rule="evenodd">
        <g id="network" fill="#FFFFFF" fill-rule="nonzero">
            <path d="M16.7397,9.30252 C15.6309,6.62889 13.4597,4.46451 10.7828,3.36467 C10.3416,3.18326 9.83652,3.39412 9.65511,3.83549 C9.47374,4.27693 9.68461,4.78182 10.126,4.96318 C12.3807,5.88963 14.2095,7.7126 15.1434,9.96455 C15.2813,10.2971 15.6029,10.4979 15.9419,10.4979 C16.0522,10.4979 16.1643,10.4766 16.2725,10.4317 C16.7133,10.249 16.9225,9.74338 16.7397,9.30252 Z" id="Path"></path>
            <path d="M19.9338,7.97952 C18.4768,4.46553 15.6238,1.61932 12.1065,0.170603 C11.6651,-0.0112721 11.1602,0.199158 10.9785,0.640448 C10.7967,1.08174 11.0071,1.58682 11.4483,1.76854 C14.5439,3.04366 17.055,5.54866 18.3375,8.64144 C18.4753,8.97406 18.797,9.17484 19.136,9.17484 C19.2462,9.17484 19.3584,9.15359 19.4666,9.10871 C19.9075,8.92589 20.1167,8.42031 19.9338,7.97952 Z" id="Path"></path>
            <path d="M1.38305,9.44157 C1.94559,9.76345 2.81133,10.0231 3.83055,10.193 C3.9388,9.59243 4.07723,9.03407 4.24368,8.53477 C4.44829,7.92094 4.67759,7.45027 4.917,7.09042 C3.49387,7.46906 2.25922,8.30946 1.38305,9.44157 Z" id="Path"></path>
            <path d="M4.24364,18.4505 C4.0772,17.9512 3.9388,17.3928 3.83052,16.7923 C2.81126,16.9622 1.94559,17.2219 1.38309,17.5438 C2.25926,18.6758 3.49392,19.5162 4.91697,19.8949 C4.67755,19.535 4.44829,19.0643 4.24364,18.4505 Z" id="Path"></path>
            <path d="M12.7376,10.9342 C12.7376,10.9342 12.7375,10.9343 12.7375,10.9343 C11.9799,11.3709 10.8983,11.7057 9.6361,11.9111 C9.67614,12.4249 9.69735,12.9543 9.69735,13.4925 C9.69735,14.0308 9.67622,14.5601 9.6361,15.0738 C10.898,15.2791 11.9796,15.6139 12.7374,16.0504 C12.7375,16.0504 12.7376,16.0505 12.7378,16.0506 C13.0676,15.2635 13.25,14.3993 13.25,13.4925 C13.25,12.5857 13.0675,11.7214 12.7376,10.9342 Z" id="Path"></path>
            <path d="M7.44357,9.3252 C7.11583,8.22571 6.75974,7.82364 6.62501,7.74161 C6.49021,7.82372 6.13411,8.22571 5.80634,9.3252 C5.70911,9.65145 5.62485,10.0067 5.55345,10.3829 C5.90497,10.4036 6.26341,10.4147 6.62478,10.4147 C6.98626,10.4147 7.34482,10.4036 7.69642,10.3829 C7.62501,10.0067 7.54079,9.65145 7.44357,9.3252 Z" id="Path"></path>
            <path d="M8.33301,7.09036 C8.57242,7.45025 8.80164,7.92091 9.00629,8.53478 C9.17274,9.03408 9.3111,9.59248 9.41934,10.1929 C10.4387,10.0229 11.3044,9.76326 11.8668,9.4413 C10.9906,8.30935 9.75595,7.46907 8.33301,7.09036 Z" id="Path"></path>
            <path d="M9.41942,16.7922 C9.3111,17.3927 9.17274,17.9511 9.00629,18.4504 C8.80168,19.0642 8.57242,19.5349 8.33301,19.8948 C9.7561,19.5161 10.9908,18.6758 11.8669,17.5436 C11.3044,17.2218 10.4386,16.9622 9.41942,16.7922 Z" id="Path"></path>
            <path d="M3.61372,11.9112 C2.35168,11.7058 1.27008,11.3711 0.512384,10.9346 C0.512306,10.9346 0.512267,10.9345 0.512228,10.9345 C0.182383,11.7216 0,12.5858 0,13.4926 C0,14.3994 0.182383,15.2635 0.512267,16.0507 L0.512267,16.0507 C1.26996,15.614 2.35157,15.2793 3.61364,15.0739 C3.57368,14.5601 3.55247,14.0308 3.55247,13.4926 C3.55247,12.9543 3.57368,12.4249 3.61372,11.9112 Z" id="Path"></path>
            <path d="M7.91779,12.1019 C7.49634,12.1287 7.06419,12.1428 6.62478,12.1428 C6.18544,12.1428 5.75341,12.1288 5.33204,12.1019 C5.29833,12.5539 5.28071,13.0199 5.28071,13.4926 C5.28071,13.9653 5.29829,14.4312 5.33204,14.8831 C5.75345,14.8563 6.18564,14.8422 6.62501,14.8422 C7.06435,14.8422 7.49646,14.8563 7.91779,14.8831 C7.9515,14.4312 7.96912,13.9653 7.96912,13.4926 C7.96912,13.0199 7.95154,12.5539 7.91779,12.1019 Z" id="Path"></path>
            <path d="M6.62501,16.5705 C6.26357,16.5705 5.90501,16.5815 5.55345,16.6023 C5.62482,16.9785 5.70911,17.3337 5.80634,17.66 C6.13407,18.7596 6.49021,19.1616 6.62501,19.2437 C6.75982,19.1615 7.11591,18.7596 7.44357,17.66 C7.54079,17.3337 7.62505,16.9785 7.69642,16.6023 C7.3449,16.5816 6.98638,16.5705 6.62501,16.5705 Z" id="Path"></path>
        </g>
    </g>
</svg>