<?xml version="1.0" encoding="UTF-8"?>
<svg width="16px" height="20px" viewBox="0 0 16 20" version="1.1" xmlns="http://www.w3.org/2000/svg" xmlns:xlink="http://www.w3.org/1999/xlink">
    <title>security</title>
    <g id="Page-1" stroke="none" stroke-width="1" fill="none" fill-rule="evenodd">
        <g id="security" fill="#FFFFFF" fill-rule="nonzero">
            <path d="M14.2222,6.9334 L12.6667,6.9334 L12.6667,4.66664 C12.6667,2.09348 10.5732,0 8,0 C5.42683,0 3.33339,2.09348 3.33339,4.66664 L3.33339,6.9334 L1.77784,6.9334 C1.26241,6.9334 0.84452,7.35129 0.84452,7.86672 L0.84452,19.0667 C0.84452,19.5821 1.26241,20 1.77784,20 L14.2222,20 C14.7376,20 15.1555,19.5821 15.1555,19.0667 L15.1555,7.86672 C15.1555,7.35129 14.7377,6.9334 14.2222,6.9334 Z M5.20003,4.66664 C5.20003,3.12273 6.45616,1.86664 8,1.86664 C9.5439,1.86664 10.8,3.12273 10.8,4.66664 L10.8,6.9334 L5.20003,6.9334 L5.20003,4.66664 Z M10.6433,12.8044 L7.99886,15.4488 C7.81659,15.6311 7.57772,15.7222 7.33893,15.7222 C7.10015,15.7222 6.8612,15.631 6.67901,15.4488 L5.35679,14.1266 C4.99229,13.7622 4.99229,13.1712 5.35679,12.8067 C5.72124,12.4423 6.31222,12.4423 6.67671,12.8067 L7.33901,13.469 L9.3235,11.4845 C9.688,11.12 10.2789,11.12 10.6434,11.4845 C11.0078,11.849 11.0078,12.44 10.6433,12.8044 Z" id="Shape"></path>
        </g>
    </g>
</svg>