<svg width="96" height="50" viewBox="0 0 96 50" fill="none" xmlns="http://www.w3.org/2000/svg">
<path d="M88.2915 31.4441C85.1308 34.6739 80.0319 34.6739 76.8712 31.4441C73.7105 28.2144 73.7105 23.0042 76.8712 19.7744C80.0319 16.5447 85.1308 16.5447 88.2915 19.7744C89.037 20.5362 89.6333 21.4503 90.021 22.3948L95.4776 20.0182C93.3307 14.8994 88.381 11.2736 82.5665 11.2736C74.8138 11.2736 68.552 17.6721 68.552 25.5941C68.552 33.516 74.8138 39.9146 82.5665 39.9146H82.5963L75.6785 49.9998H83.1926C83.1926 49.9998 92.6449 36.0754 94.4042 33.2723C94.434 33.2418 94.4638 33.2113 94.4638 33.1504C94.5235 33.059 94.5533 32.9981 94.6129 32.9371C94.6129 32.9371 94.6129 32.9066 94.6427 32.9066C94.9707 32.3582 95.2391 31.8098 95.4776 31.2004L89.9911 28.7933C89.6333 29.7683 89.0668 30.6519 88.2915 31.4441Z" fill="url(#paint0_linear)"/>
<path d="M65.5107 11.2433H59.5471V39.9452H65.5107V11.2433Z" fill="url(#paint1_linear)"/>
<path d="M62.5289 8.77512C64.9003 8.77512 66.8227 6.81074 66.8227 4.38756C66.8227 1.96437 64.9003 0 62.5289 0C60.1575 0 58.2351 1.96437 58.2351 4.38756C58.2351 6.81074 60.1575 8.77512 62.5289 8.77512Z" fill="url(#paint2_linear)"/>
<path d="M11.1526 29.9512C12.077 30.6824 13.2399 31.1395 14.4922 31.1395C16.1322 31.1395 17.5933 30.3777 18.6071 29.1894L19.2333 28.2754L22.3343 23.705L26.3001 17.8549C25.2565 16.1791 23.8551 14.747 22.2151 13.6502C20.0085 12.1572 17.3547 11.2736 14.4922 11.2736C8.26027 11.2736 2.98249 15.4174 1.13378 21.1456V21.176C1.07414 21.3893 1.01451 21.5721 0.954872 21.7854C0.954872 21.8159 0.925053 21.8464 0.925053 21.8768C0.865417 22.0596 0.8356 22.2425 0.805783 22.4253C0.805783 22.4862 0.775963 22.5167 0.775963 22.5776C0.746145 22.73 0.716326 22.9128 0.686508 23.0651C0.686508 23.1261 0.656693 23.187 0.656693 23.2784C0.626875 23.4308 0.597053 23.5831 0.597053 23.7354C0.597053 23.8269 0.567238 23.9183 0.567238 24.0097C0.53742 24.162 0.537418 24.2839 0.537418 24.4362C0.537418 24.5276 0.507603 24.6495 0.507603 24.7409C0.507603 24.8628 0.507601 25.0152 0.477783 25.137C0.477783 25.2284 0.477783 25.3503 0.477783 25.4417C0.477783 25.5027 0.477783 25.5941 0.477783 25.655C0.477783 25.6855 0.477783 25.7159 0.477783 25.7769C0.477783 26.112 0.507603 26.4777 0.507603 26.8128C0.507603 26.9042 0.537418 26.9956 0.537418 27.0871C0.567236 27.4222 0.597057 27.7269 0.656693 28.0621C0.686511 28.1839 0.68651 28.2754 0.716328 28.3972C0.775964 28.6715 0.835597 28.9457 0.895233 29.2199C0.925051 29.3418 0.95487 29.4941 0.984688 29.616C1.04432 29.8902 1.13378 30.134 1.22323 30.3777C1.25305 30.4691 1.28287 30.5605 1.31269 30.6519C1.43196 30.9566 1.55123 31.2613 1.6705 31.566C1.70032 31.627 1.73014 31.7184 1.75996 31.7793C1.90905 32.1145 2.05813 32.4192 2.23704 32.7238C2.26686 32.7543 2.26686 32.7848 2.29668 32.8153C3.22104 34.4911 4.5032 35.984 6.08355 37.1723L6.11337 37.2028C6.14319 37.2333 6.20283 37.2638 6.23264 37.2942C6.50101 37.477 6.76937 37.6599 7.03773 37.8427C7.06755 37.8731 7.09737 37.8731 7.12718 37.9036C8.14099 38.5435 9.21444 39.031 10.2879 39.3661C15.8937 41.1333 22.1853 39.1833 25.823 34.0645C25.8529 34.0036 25.8827 33.9731 25.9125 33.9121L21.1118 30.3473C19.7402 32.3277 17.6529 33.516 15.4464 33.7903C15.178 33.8207 14.8799 33.8512 14.6115 33.8512H14.5817C13.6871 33.8512 12.7926 33.7293 11.9577 33.4246C11.9279 33.4246 11.9279 33.4246 11.8981 33.3942C11.6595 33.3028 11.421 33.2114 11.1526 33.0895C11.0632 33.059 10.9737 32.9981 10.8842 32.9676C10.7352 32.8762 10.5562 32.7848 10.4072 32.6934C10.2879 32.6324 10.1984 32.5715 10.0792 32.4801C9.93008 32.3887 9.8108 32.2973 9.66171 32.1754C9.57226 32.1145 9.45298 32.0231 9.36353 31.9317C9.21444 31.8098 9.06535 31.6574 8.91626 31.5355C8.85662 31.4746 8.76718 31.3832 8.70754 31.3223C8.58827 31.2004 8.46899 31.0785 8.37954 30.9566C8.3199 30.8652 8.23045 30.8043 8.17081 30.7129C8.08136 30.591 7.99191 30.4691 7.90245 30.3168C7.84282 30.2254 7.75337 30.134 7.69373 30.0121C7.60428 29.8902 7.54464 29.7683 7.485 29.6465C7.42537 29.5246 7.36573 29.4027 7.30609 29.3113C7.24646 29.1894 7.21664 29.098 7.157 28.9761C7.09737 28.8543 7.03773 28.7019 6.97809 28.58C6.94828 28.4886 6.91846 28.3668 6.85882 28.2754C6.79919 28.123 6.76937 27.9707 6.70973 27.8488C6.67992 27.7269 6.6501 27.6355 6.62028 27.5136C6.59047 27.3613 6.56064 27.2089 6.53082 27.0871C6.50101 26.9652 6.50101 26.8433 6.47119 26.7214C6.44138 26.5996 6.44137 26.4472 6.41155 26.2949C6.41155 26.173 6.41155 26.0206 6.38173 25.8683C6.38173 25.7464 6.38173 25.6245 6.38173 25.5027C6.38173 25.3503 6.38174 25.198 6.41155 25.0456C6.41155 24.9237 6.41156 24.8323 6.44137 24.7105C6.47119 24.5581 6.4712 24.4058 6.50101 24.2534C6.53083 24.1315 6.53083 24.0401 6.56064 23.9183C6.59046 23.7659 6.62029 23.644 6.6501 23.4917C6.67992 23.3698 6.70974 23.2479 6.73955 23.1261C6.76937 23.0042 6.82901 22.8823 6.85882 22.7604C6.91846 22.6386 6.94828 22.4862 7.00791 22.3643C7.03773 22.2425 7.09737 22.151 7.157 22.0596C7.21664 21.9073 7.27628 21.7854 7.36573 21.6331C7.42537 21.5417 7.485 21.4503 7.51482 21.3589C7.60428 21.2065 7.69373 21.0846 7.78318 20.9323C8.05154 20.5057 8.37954 20.1401 8.73736 19.7745C11.4508 17.0018 15.6551 16.6057 18.7562 18.6471L17.2355 20.9018L11.1526 29.9512Z" fill="url(#paint3_linear)"/>
<path d="M42.0142 11.2433C34.2616 11.2433 27.97 17.6723 27.97 25.5943V50H33.9336V37.3249C36.2296 38.9702 39.0026 39.9452 42.0142 39.9452C49.7669 39.9452 56.0585 33.5162 56.0585 25.5943C56.0585 17.6723 49.7669 11.2433 42.0142 11.2433ZM42.0142 33.8514C37.5714 33.8514 33.9336 30.1646 33.9336 25.5943C33.9336 21.0543 37.5415 17.3371 42.0142 17.3371C46.4571 17.3371 50.0949 21.0239 50.0949 25.5943C50.0949 30.1646 46.4571 33.8514 42.0142 33.8514Z" fill="url(#paint4_linear)"/>
<defs>
<linearGradient id="paint0_linear" x1="0.242607" y1="30.6494" x2="92.5091" y2="30.6494" gradientUnits="userSpaceOnUse">
<stop stop-color="#20AEDB"/>
<stop offset="1" stop-color="#58BF9B"/>
</linearGradient>
<linearGradient id="paint1_linear" x1="0.242811" y1="25.602" x2="92.5092" y2="25.602" gradientUnits="userSpaceOnUse">
<stop stop-color="#20AEDB"/>
<stop offset="1" stop-color="#58BF9B"/>
</linearGradient>
<linearGradient id="paint2_linear" x1="0.242814" y1="4.40112" x2="92.5092" y2="4.40112" gradientUnits="userSpaceOnUse">
<stop stop-color="#20AEDB"/>
<stop offset="1" stop-color="#58BF9B"/>
</linearGradient>
<linearGradient id="paint3_linear" x1="0.242848" y1="25.6092" x2="92.5092" y2="25.6092" gradientUnits="userSpaceOnUse">
<stop stop-color="#20AEDB"/>
<stop offset="1" stop-color="#58BF9B"/>
</linearGradient>
<linearGradient id="paint4_linear" x1="0.242858" y1="30.6388" x2="92.5093" y2="30.6388" gradientUnits="userSpaceOnUse">
<stop stop-color="#20AEDB"/>
<stop offset="1" stop-color="#58BF9B"/>
</linearGradient>
</defs>
</svg>
