<svg width="30" height="18" viewBox="0 0 30 18" fill="none" xmlns="http://www.w3.org/2000/svg">
<path d="M8.54435 6.56688C8.54435 6.93282 8.58391 7.22952 8.65314 7.4471C8.73226 7.66469 8.83116 7.90205 8.96962 8.15919C9.01907 8.23831 9.03885 8.31743 9.03885 8.38666C9.03885 8.48556 8.97951 8.58447 8.85094 8.68337L8.22786 9.09875C8.13885 9.15809 8.04984 9.18776 7.97072 9.18776C7.87182 9.18776 7.77292 9.13831 7.67402 9.0493C7.53556 8.90095 7.41688 8.74271 7.31797 8.58447C7.21907 8.41633 7.12017 8.22842 7.01138 8.00095C6.23995 8.91084 5.27072 9.36578 4.10369 9.36578C3.27292 9.36578 2.61028 9.12842 2.12567 8.6537C1.64105 8.17897 1.3938 7.546 1.3938 6.7548C1.3938 5.91414 1.6905 5.23172 2.2938 4.71743C2.8971 4.20315 3.69819 3.946 4.71688 3.946C5.05314 3.946 5.39929 3.97567 5.76523 4.02513C6.13116 4.07458 6.50699 4.1537 6.90259 4.24271V3.52073C6.90259 2.76908 6.74435 2.24491 6.43775 1.93831C6.12127 1.63172 5.5872 1.48337 4.82567 1.48337C4.47951 1.48337 4.12347 1.52293 3.75753 1.61194C3.3916 1.70095 3.03556 1.80974 2.6894 1.9482C2.53116 2.01743 2.41248 2.05699 2.34325 2.07677C2.27402 2.09655 2.22457 2.10644 2.18501 2.10644C2.04655 2.10644 1.97732 2.00754 1.97732 1.79985V1.31524C1.97732 1.15699 1.9971 1.03831 2.04655 0.969082C2.096 0.899851 2.18501 0.83062 2.32347 0.76139C2.66962 0.583368 3.08501 0.435016 3.56962 0.316335C4.05424 0.187763 4.56852 0.128423 5.11248 0.128423C6.2894 0.128423 7.14984 0.395456 7.70369 0.929521C8.24764 1.46359 8.52457 2.27458 8.52457 3.36249V6.56688H8.54435ZM4.52896 8.07018C4.85534 8.07018 5.1916 8.01084 5.54764 7.89216C5.90369 7.77348 6.22017 7.55589 6.48721 7.25919C6.64545 7.07128 6.76413 6.86359 6.82347 6.62622C6.88281 6.38886 6.92237 6.10205 6.92237 5.76578V5.3504C6.63556 5.28117 6.32896 5.22183 6.01248 5.18227C5.696 5.14271 5.3894 5.12293 5.08281 5.12293C4.42017 5.12293 3.93556 5.2515 3.60918 5.51853C3.28281 5.78556 3.12457 6.16139 3.12457 6.65589C3.12457 7.12073 3.24325 7.46688 3.4905 7.70425C3.72786 7.9515 4.07402 8.07018 4.52896 8.07018ZM12.4707 9.13831C12.2927 9.13831 12.174 9.10864 12.0949 9.03941C12.0158 8.98007 11.9465 8.84161 11.8872 8.6537L9.56303 1.00864C9.50369 0.81084 9.47402 0.682269 9.47402 0.613038C9.47402 0.454796 9.55314 0.365785 9.71138 0.365785H10.6806C10.8685 0.365785 10.9971 0.395456 11.0663 0.464686C11.1454 0.524027 11.2048 0.662489 11.2641 0.850401L12.9257 7.39765L14.4685 0.850401C14.518 0.652599 14.5773 0.524027 14.6564 0.464686C14.7356 0.405346 14.874 0.365785 15.052 0.365785H15.8432C16.0312 0.365785 16.1597 0.395456 16.2389 0.464686C16.318 0.524027 16.3872 0.662489 16.4268 0.850401L17.9894 7.47677L19.7004 0.850401C19.7597 0.652599 19.829 0.524027 19.8982 0.464686C19.9773 0.405346 20.1059 0.365785 20.2839 0.365785H21.2037C21.3619 0.365785 21.4509 0.444906 21.4509 0.613038C21.4509 0.662489 21.441 0.711939 21.4312 0.77128C21.4213 0.83062 21.4015 0.909741 21.3619 1.01853L18.9784 8.66359C18.9191 8.86139 18.8498 8.98996 18.7707 9.0493C18.6916 9.10864 18.563 9.1482 18.3949 9.1482H17.5443C17.3564 9.1482 17.2279 9.11853 17.1487 9.0493C17.0696 8.98007 17.0004 8.8515 16.9608 8.6537L15.4279 2.27458L13.9048 8.64381C13.8553 8.84161 13.796 8.97018 13.7169 9.03941C13.6378 9.10864 13.4993 9.13831 13.3213 9.13831H12.4707ZM25.1795 9.40534C24.6652 9.40534 24.1509 9.346 23.6564 9.22732C23.1619 9.10864 22.7762 8.98007 22.5191 8.83172C22.3608 8.74271 22.252 8.64381 22.2125 8.5548C22.1729 8.46578 22.1531 8.36688 22.1531 8.27787V7.77348C22.1531 7.56578 22.2323 7.46688 22.3806 7.46688C22.44 7.46688 22.4993 7.47677 22.5586 7.49655C22.618 7.51633 22.707 7.55589 22.8059 7.59545C23.1421 7.74381 23.5081 7.86249 23.8938 7.94161C24.2894 8.02073 24.6751 8.06029 25.0707 8.06029C25.6938 8.06029 26.1784 7.9515 26.5147 7.73392C26.8509 7.51633 27.029 7.19985 27.029 6.79436C27.029 6.51743 26.94 6.28996 26.7619 6.10205C26.5839 5.91414 26.2476 5.746 25.763 5.58776L24.329 5.14271C23.607 4.91524 23.0729 4.57897 22.7465 4.13392C22.4202 3.69875 22.252 3.21414 22.252 2.69985C22.252 2.28447 22.341 1.91853 22.5191 1.60205C22.6971 1.28557 22.9345 1.00864 23.2312 0.79106C23.5279 0.563588 23.8641 0.395456 24.2597 0.276774C24.6553 0.158093 25.0707 0.108643 25.5059 0.108643C25.7235 0.108643 25.9509 0.118533 26.1685 0.148203C26.396 0.177873 26.6037 0.217434 26.8114 0.256994C27.0092 0.306445 27.1971 0.355895 27.3751 0.415236C27.5531 0.474577 27.6916 0.533917 27.7905 0.593258C27.929 0.672379 28.0279 0.7515 28.0872 0.840511C28.1465 0.919631 28.1762 1.02842 28.1762 1.16688V1.63172C28.1762 1.83941 28.0971 1.9482 27.9487 1.9482C27.8696 1.9482 27.741 1.90864 27.5729 1.82952C27.0092 1.57238 26.3762 1.44381 25.674 1.44381C25.1103 1.44381 24.6652 1.53282 24.3586 1.72073C24.052 1.90864 23.8938 2.19546 23.8938 2.60095C23.8938 2.87787 23.9927 3.11524 24.1905 3.30315C24.3883 3.49106 24.7542 3.67897 25.2784 3.8471L26.6828 4.29216C27.3949 4.51963 27.9092 4.83611 28.2158 5.24161C28.5224 5.6471 28.6707 6.11194 28.6707 6.62622C28.6707 7.0515 28.5817 7.43721 28.4136 7.77348C28.2356 8.10974 27.9982 8.40644 27.6916 8.64381C27.385 8.89106 27.0191 9.06908 26.5938 9.19765C26.1487 9.33611 25.6839 9.40534 25.1795 9.40534Z" fill="white"/>
<path fill-rule="evenodd" clip-rule="evenodd" d="M27.049 14.2119C23.7952 16.6152 19.0677 17.891 15.0029 17.891C9.30618 17.891 4.17321 15.7844 0.296289 12.2833C-0.0103047 12.0064 0.266618 11.6305 0.632552 11.8481C4.82596 14.2811 9.99849 15.7547 15.349 15.7547C18.9589 15.7547 22.9249 15.0031 26.5743 13.4602C27.1183 13.213 27.5831 13.8163 27.049 14.2119Z" fill="white"/>
<path fill-rule="evenodd" clip-rule="evenodd" d="M28.4042 12.669C27.9888 12.1349 25.6547 12.4118 24.5965 12.5404C24.28 12.58 24.2305 12.303 24.5174 12.0953C26.3767 10.7899 29.4327 11.1657 29.7888 11.6008C30.1448 12.0459 29.6899 15.1019 27.9492 16.5657C27.6822 16.7931 27.425 16.6745 27.5437 16.3778C27.9393 15.3986 28.8196 13.1931 28.4042 12.669Z" fill="white"/>
</svg>
