<svg width="95" height="50" viewBox="0 0 95 50" fill="none" xmlns="http://www.w3.org/2000/svg">
<path d="M87.8139 31.4441C84.6531 34.6739 79.5543 34.6739 76.3936 31.4441C73.2329 28.2144 73.2329 23.0042 76.3936 19.7744C79.5543 16.5447 84.6531 16.5447 87.8139 19.7744C88.5593 20.5362 89.1557 21.4503 89.5433 22.3948L95 20.0182C92.8531 14.8994 87.9033 11.2736 82.0888 11.2736C74.3361 11.2736 68.0743 17.6721 68.0743 25.5941C68.0743 33.516 74.3361 39.9146 82.0888 39.9146H82.1186L75.2008 49.9998H82.715C82.715 49.9998 92.1673 36.0754 93.9265 33.2723C93.9564 33.2418 93.9862 33.2113 93.9862 33.1504C94.0458 33.059 94.0756 32.9981 94.1353 32.9371C94.1353 32.9371 94.1353 32.9066 94.1651 32.9066C94.4931 32.3582 94.7614 31.8098 95 31.2004L89.5135 28.7933C89.1557 29.7683 88.5891 30.6519 87.8139 31.4441Z" fill="white"/>
<path d="M65.033 11.2433H59.0695V39.9452H65.033V11.2433Z" fill="white"/>
<path d="M62.0511 8.77512C64.4225 8.77512 66.3449 6.81074 66.3449 4.38756C66.3449 1.96437 64.4225 0 62.0511 0C59.6797 0 57.7574 1.96437 57.7574 4.38756C57.7574 6.81074 59.6797 8.77512 62.0511 8.77512Z" fill="white"/>
<path d="M10.6748 29.9512C11.5992 30.6824 12.7621 31.1395 14.0144 31.1395C15.6544 31.1395 17.1155 30.3777 18.1293 29.1894L18.7555 28.2754L21.8566 23.705L25.8223 17.8549C24.7787 16.1791 23.3773 14.747 21.7373 13.6502C19.5308 12.1572 16.877 11.2736 14.0144 11.2736C7.78249 11.2736 2.50471 15.4174 0.655994 21.1456V21.176C0.596358 21.3893 0.536725 21.5721 0.477089 21.7854C0.477089 21.8159 0.447269 21.8464 0.447269 21.8768C0.387633 22.0596 0.357817 22.2425 0.327999 22.4253C0.327999 22.4862 0.29818 22.5167 0.29818 22.5776C0.268362 22.73 0.238543 22.9128 0.208725 23.0651C0.208725 23.1261 0.17891 23.187 0.17891 23.2784C0.149092 23.4308 0.11927 23.5831 0.11927 23.7354C0.11927 23.8269 0.0894548 23.9183 0.0894548 24.0097C0.0596368 24.162 0.059635 24.2839 0.059635 24.4362C0.059635 24.5276 0.0298198 24.6495 0.0298198 24.7409C0.0298198 24.8628 0.029818 25.0152 0 25.137C0 25.2284 0 25.3503 0 25.4417C0 25.5027 0 25.5941 0 25.655C0 25.6855 0 25.7159 0 25.7769C0 26.112 0.0298198 26.4777 0.0298198 26.8128C0.0298198 26.9042 0.059635 26.9956 0.059635 27.0871C0.089453 27.4222 0.119274 27.7269 0.17891 28.0621C0.208727 28.1839 0.208727 28.2754 0.238545 28.3972C0.29818 28.6715 0.357814 28.9457 0.41745 29.2199C0.447267 29.3418 0.477086 29.4941 0.506904 29.616C0.56654 29.8902 0.655995 30.134 0.745449 30.3777C0.775267 30.4691 0.805086 30.5605 0.834904 30.6519C0.954175 30.9566 1.07345 31.2613 1.19272 31.566C1.22254 31.627 1.25235 31.7184 1.28217 31.7793C1.43126 32.1145 1.58035 32.4192 1.75926 32.7238C1.78908 32.7543 1.78908 32.7848 1.8189 32.8153C2.74325 34.4911 4.02542 35.984 5.60577 37.1723L5.63559 37.2028C5.66541 37.2333 5.72504 37.2638 5.75486 37.2942C6.02322 37.477 6.29159 37.6599 6.55995 37.8427C6.58977 37.8731 6.61958 37.8731 6.6494 37.9036C7.66321 38.5435 8.73666 39.031 9.81011 39.3661C15.4159 41.1333 21.7075 39.1833 25.3453 34.0645C25.3751 34.0036 25.4049 33.9731 25.4347 33.9121L20.634 30.3473C19.2624 32.3277 17.1751 33.516 14.9686 33.7903C14.7003 33.8207 14.4021 33.8512 14.1337 33.8512H14.1039C13.2093 33.8512 12.3148 33.7293 11.4799 33.4246C11.4501 33.4246 11.4501 33.4246 11.4203 33.3942C11.1817 33.3028 10.9432 33.2114 10.6748 33.0895C10.5854 33.059 10.4959 32.9981 10.4065 32.9676C10.2574 32.8762 10.0785 32.7848 9.92937 32.6934C9.8101 32.6324 9.72066 32.5715 9.60139 32.4801C9.4523 32.3887 9.33302 32.2973 9.18393 32.1754C9.09447 32.1145 8.9752 32.0231 8.88575 31.9317C8.73666 31.8098 8.58757 31.6574 8.43848 31.5355C8.37884 31.4746 8.28939 31.3832 8.22976 31.3223C8.11049 31.2004 7.99121 31.0785 7.90176 30.9566C7.84212 30.8652 7.75266 30.8043 7.69303 30.7129C7.60357 30.591 7.51412 30.4691 7.42467 30.3168C7.36503 30.2254 7.27558 30.134 7.21595 30.0121C7.12649 29.8902 7.06685 29.7683 7.00722 29.6465C6.94758 29.5246 6.88795 29.4027 6.82831 29.3113C6.76867 29.1894 6.73886 29.098 6.67922 28.9761C6.61958 28.8543 6.55995 28.7019 6.50031 28.58C6.47049 28.4886 6.44068 28.3668 6.38104 28.2754C6.3214 28.123 6.29159 27.9707 6.23195 27.8488C6.20213 27.7269 6.17232 27.6355 6.1425 27.5136C6.11268 27.3613 6.08286 27.2089 6.05304 27.0871C6.02322 26.9652 6.02323 26.8433 5.99341 26.7214C5.96359 26.5996 5.96359 26.4472 5.93377 26.2949C5.93377 26.173 5.93377 26.0206 5.90395 25.8683C5.90395 25.7464 5.90395 25.6245 5.90395 25.5027C5.90395 25.3503 5.90395 25.198 5.93377 25.0456C5.93377 24.9237 5.93377 24.8323 5.96359 24.7105C5.99341 24.5581 5.99341 24.4058 6.02323 24.2534C6.05305 24.1315 6.05304 24.0401 6.08286 23.9183C6.11268 23.7659 6.1425 23.644 6.17232 23.4917C6.20214 23.3698 6.23195 23.2479 6.26177 23.1261C6.29159 23.0042 6.35122 22.8823 6.38104 22.7604C6.44068 22.6386 6.47049 22.4862 6.53013 22.3643C6.55995 22.2425 6.61958 22.151 6.67922 22.0596C6.73886 21.9073 6.7985 21.7854 6.88795 21.6331C6.94759 21.5417 7.00722 21.4503 7.03704 21.3589C7.12649 21.2065 7.21594 21.0846 7.3054 20.9323C7.57376 20.5057 7.90176 20.1401 8.25958 19.7745C10.973 17.0018 15.1773 16.6057 18.2784 18.6471L16.7577 20.9018L10.6748 29.9512Z" fill="white"/>
<path d="M41.5365 11.2433C33.7838 11.2433 27.4922 17.6723 27.4922 25.5943V50H33.4558V37.3249C35.7518 38.9702 38.5248 39.9452 41.5365 39.9452C49.2891 39.9452 55.5807 33.5162 55.5807 25.5943C55.5807 17.6723 49.2891 11.2433 41.5365 11.2433ZM41.5365 33.8514C37.0936 33.8514 33.4558 30.1646 33.4558 25.5943C33.4558 21.0543 37.0638 17.3371 41.5365 17.3371C45.9793 17.3371 49.6171 21.0239 49.6171 25.5943C49.6171 30.1646 45.9793 33.8514 41.5365 33.8514Z" fill="white"/>
</svg>
