<svg width="163" height="34" viewBox="0 0 163 34" fill="none" xmlns="http://www.w3.org/2000/svg">
<g clip-path="url(#clip0)">
<path d="M15.2699 25.7257C20.2136 25.7257 24.2213 21.718 24.2213 16.7743C24.2213 11.8306 20.2136 7.823 15.2699 7.823C10.3263 7.823 6.3186 11.8306 6.3186 16.7743C6.3186 21.718 10.3263 25.7257 15.2699 25.7257Z" fill="white"/>
<path d="M47.4647 5.34071C43.6284 5.34071 37.7612 3.5354 37.7612 3.5354C37.7612 3.5354 36.4824 6.84514 36.4824 11.3584C36.4824 15.8717 40.2435 27.7566 47.8408 30.7655C47.8408 30.7655 58.6727 23.9204 58.6727 11.9602C58.6727 4.81416 57.6196 3.5354 57.6196 3.5354C57.6196 3.5354 51.301 5.34071 47.4647 5.34071Z" fill="white"/>
<path d="M69.8054 14.5929V1.65488H74.6948C77.0267 1.50444 79.3585 2.48231 79.3585 5.03984C79.3585 6.46904 78.3806 7.44691 77.1019 7.89824C78.7567 8.27435 79.9603 9.40267 79.9603 11.2832C79.9603 13.8407 76.7258 14.8186 74.77 14.6682H69.8054V14.5929ZM74.77 6.84515C75.9736 6.84515 76.5753 6.39382 76.5753 5.34072C76.5753 4.28762 75.8983 3.8363 74.77 3.8363H72.5886V6.92037H74.77V6.84515ZM74.77 12.4115C76.0488 12.4115 76.9514 12.1859 76.9514 10.6814C76.9514 9.177 76.0488 8.95134 74.77 8.95134H72.5886V12.4115H74.77ZM84.3983 1.65488V14.5929H81.6904V1.65488H84.3983ZM92.5975 13.4646C91.9957 14.292 91.1682 14.8186 89.8143 14.8186C88.9116 14.8186 87.1815 14.1416 86.8806 12.8628C86.7302 12.3363 86.7302 11.7345 86.7302 11.4336V5.56638H89.4382V10.9823C89.4382 11.9602 89.739 13.0885 91.0178 13.0885C91.8452 13.0885 92.5975 12.3363 92.5975 10.9823V5.56638H95.3054V12.9381C95.3054 13.4646 95.3806 13.9912 95.3806 14.5177H92.6727L92.5975 13.4646ZM100.044 10.8319C100.044 12.0354 100.195 13.0885 101.624 13.0885C102.527 13.0885 103.053 12.7124 103.279 11.885H105.686C105.46 14.1416 103.73 14.8186 101.624 14.8186C98.5399 14.8186 97.2612 13.0885 97.2612 10.0797C97.2612 7.37169 98.8408 5.2655 101.624 5.2655C103.279 5.2655 104.708 5.86727 105.46 7.44691C105.686 7.97346 105.836 8.50001 105.912 9.02656C105.987 9.55311 105.987 10.1549 105.987 10.7566H100.044V10.8319ZM103.204 9.02656C103.204 8.04868 102.903 7.14603 101.624 7.14603C100.42 7.14603 100.12 8.04868 100.044 9.02656H103.204ZM115.089 5.79205C115.089 4.43807 114.261 3.30975 112.606 3.30975C110.651 3.30975 110.124 6.24337 110.124 8.04868C110.124 9.85399 110.651 12.7876 112.606 12.7876C114.261 12.7876 115.089 11.6593 115.089 10.3053H118.022C117.872 13.5398 115.54 14.7434 112.606 14.7434C108.845 14.7434 107.19 11.8097 107.19 7.97346C107.19 4.2124 108.845 1.20355 112.606 1.20355C115.615 1.20355 117.947 2.40709 118.022 5.64161H115.089V5.79205ZM121.934 5.56638L122.009 7.22125C122.611 5.79205 123.739 5.41594 125.093 5.49116V7.89824H123.889C123.438 7.89824 122.836 8.19913 122.611 8.57523C122.31 9.10178 122.235 9.55311 122.235 10.1549V14.5929H119.527V7.37169C119.527 6.99559 119.451 6.24338 119.451 5.56638H121.934ZM130.96 14.8938C128.027 14.8938 126.221 12.9381 126.221 10.0797C126.221 7.22125 127.951 5.2655 130.96 5.2655C133.894 5.2655 135.699 7.22125 135.699 10.0797C135.699 12.9381 133.894 14.8938 130.96 14.8938ZM130.96 13.0885C132.615 13.0885 132.916 11.5089 132.916 10.0797C132.916 8.65045 132.615 7.07081 130.96 7.07081C129.305 7.07081 129.005 8.65045 129.005 10.0797C129.08 11.5089 129.305 13.0885 130.96 13.0885ZM142.168 7.97346C142.168 7.37169 141.566 7.07081 140.965 7.07081C140.212 7.07081 139.912 7.29647 139.912 7.89824C139.912 9.32745 145.102 8.50001 145.102 11.885C145.102 13.8407 142.695 14.8186 141.04 14.8186C138.934 14.8186 137.128 13.9912 137.053 11.9602H139.535C139.611 12.6372 140.212 13.0885 141.04 13.0885C141.792 13.0885 142.319 12.7876 142.319 12.1106C142.319 11.3584 141.04 11.0575 140.513 10.9823C138.783 10.6062 137.204 10.1549 137.204 8.12391C137.204 6.24337 139.46 5.41594 141.04 5.41594C142.92 5.41594 144.575 6.09293 144.651 8.12391H142.168V7.97346ZM151.12 7.97346C151.12 7.37169 150.518 7.07081 149.916 7.07081C149.164 7.07081 148.863 7.29647 148.863 7.89824C148.863 9.32745 154.053 8.50001 154.053 11.885C154.053 13.8407 151.646 14.8186 149.991 14.8186C147.885 14.8186 146.08 13.9912 146.005 11.9602H148.487C148.562 12.6372 149.164 13.0885 149.991 13.0885C150.743 13.0885 151.27 12.7876 151.27 12.1106C151.27 11.3584 149.991 11.0575 149.465 10.9823C147.735 10.6062 146.155 10.1549 146.155 8.12391C146.155 6.24337 148.412 5.41594 149.991 5.41594C151.872 5.41594 153.527 6.09293 153.602 8.12391H151.12V7.97346ZM69.8054 32.1947V19.2566H74.6948C77.0267 19.1062 79.3585 20.0841 79.3585 22.6416C79.3585 24.0708 78.3806 25.0487 77.1019 25.5C78.7567 25.8761 79.9603 27.0044 79.9603 28.885C79.9603 31.4425 76.7258 32.4204 74.77 32.2699H69.8054V32.1947ZM74.77 24.4469C75.9736 24.4469 76.5753 23.9956 76.5753 22.9425C76.5753 21.8894 75.8983 21.4381 74.77 21.4381H72.5886V24.5221L74.77 24.4469ZM74.77 30.0133C76.0488 30.0133 76.9514 29.7876 76.9514 28.2832C76.9514 26.7788 76.0488 26.5531 74.77 26.5531H72.5886V30.0133H74.77ZM84.3983 19.2566V32.1947H81.6904V19.2566H84.3983ZM92.5975 31.0664C91.9957 31.8938 91.1682 32.4204 89.8143 32.4204C88.9116 32.4204 87.1815 31.7434 86.8806 30.3894C86.7302 29.8628 86.7302 29.2611 86.7302 28.9602V23.0929H89.4382V28.5841C89.4382 29.562 89.739 30.6903 91.0178 30.6903C91.8452 30.6903 92.5975 29.9381 92.5975 28.5841V23.1682H95.3054V30.5398C95.3054 31.0664 95.3806 31.5929 95.3806 32.1195H92.6727L92.5975 31.0664ZM100.044 28.4336C100.044 29.6372 100.195 30.6903 101.624 30.6903C102.527 30.6903 103.053 30.3142 103.279 29.4867H105.686C105.46 31.7434 103.73 32.4204 101.624 32.4204C98.5399 32.4204 97.2612 30.6903 97.2612 27.6814C97.2612 24.9735 98.8408 22.8673 101.624 22.8673C103.279 22.8673 104.708 23.469 105.46 25.0487C105.686 25.5752 105.836 26.1018 105.912 26.6283C105.987 27.1549 105.987 27.7566 105.987 28.3584L100.044 28.4336ZM103.204 26.6283C103.204 25.6505 102.903 24.7478 101.624 24.7478C100.42 24.7478 100.12 25.6505 100.044 26.6283H103.204ZM114.712 22.9425C114.637 21.6637 113.885 20.9867 112.531 20.9867C111.478 20.9867 110.5 21.5133 110.5 22.6416C110.5 24.0708 111.779 24.2213 112.907 24.4469C114.863 24.9735 117.797 25.5 117.797 28.1328C117.797 31.3673 115.013 32.4956 112.23 32.4956C109.297 32.4956 107.19 31.3673 107.266 28.0575H110.124C110.049 29.4867 110.876 30.4646 112.305 30.4646C113.434 30.4646 114.863 30.0885 114.863 28.7345C114.863 27.2301 112.982 27.0797 111.929 26.7788C110.124 26.3274 107.642 25.5 107.642 23.1682C107.642 20.2345 110.35 18.8805 113.058 18.8805C115.54 18.8805 117.496 20.2345 117.496 22.8673L114.712 22.9425ZM119.677 32.1947V19.2566H122.385V24.2965C122.912 23.469 123.814 22.9425 125.168 22.9425C126.071 22.9425 127.801 23.6195 128.102 24.8982C128.252 25.4248 128.252 26.0266 128.252 26.3274V32.1947H125.62V26.7788C125.62 25.8009 125.319 24.7478 124.04 24.7478C123.212 24.7478 122.46 25.5 122.46 26.7788V32.1947H119.677ZM133.443 19.2566V21.5885H130.584V19.2566H133.443ZM133.292 23.1682V32.1947H130.584V23.1682H133.292ZM138.031 28.4336C138.031 29.6372 138.182 30.6903 139.611 30.6903C140.513 30.6903 141.04 30.3142 141.266 29.4867H143.673C143.447 31.7434 141.717 32.4204 139.611 32.4204C136.527 32.4204 135.248 30.6903 135.248 27.6814C135.248 24.9735 136.828 22.8673 139.611 22.8673C141.266 22.8673 142.695 23.469 143.447 25.0487C143.673 25.5752 143.823 26.1018 143.898 26.6283C143.974 27.1549 143.974 27.7566 143.974 28.3584L138.031 28.4336ZM141.115 26.6283C141.115 25.6505 140.814 24.7478 139.535 24.7478C138.332 24.7478 138.031 25.6505 137.956 26.6283H141.115ZM148.261 19.2566V32.1947H145.553V19.2566H148.261ZM156.836 19.2566H159.544V30.4646C159.544 31.0664 159.62 31.6682 159.62 32.2699H156.912C156.912 31.8186 156.836 31.4425 156.836 30.9912C156.235 32.0443 155.257 32.5708 154.053 32.5708C151.42 32.5708 150.142 30.0885 150.142 27.7567C150.142 25.3496 151.571 22.9425 154.354 22.9425C155.257 22.9425 156.235 23.469 156.761 24.2213L156.836 19.2566ZM154.881 30.6903C156.31 30.6903 156.836 28.9602 156.836 27.6814C156.836 26.4779 156.385 24.6726 154.881 24.6726C153.151 24.6726 152.925 26.2522 152.925 27.6814C152.925 29.0354 153.151 30.6903 154.881 30.6903ZM155.332 14.5929C154.881 14.5929 154.505 14.2168 154.505 13.7655C154.505 13.3142 154.881 12.9381 155.332 12.9381C155.783 12.9381 156.159 13.3142 156.159 13.7655C156.159 14.2168 155.859 14.5929 155.332 14.5929ZM155.332 12.7124C154.805 12.7124 154.354 13.1637 154.354 13.6903C154.354 14.2168 154.805 14.6682 155.332 14.6682C155.859 14.6682 156.31 14.2168 156.31 13.6903C156.31 13.1637 155.859 12.7124 155.332 12.7124Z" fill="#231F20"/>
<path d="M155.332 13.6902H155.106V13.3141H155.407C155.558 13.3141 155.708 13.3141 155.708 13.4646C155.708 13.6902 155.482 13.6902 155.332 13.6902ZM155.858 13.4646C155.858 13.2389 155.783 13.1637 155.482 13.1637H154.956V14.292H155.106V13.7655H155.332L155.708 14.292H155.858L155.558 13.7655C155.708 13.7655 155.858 13.6902 155.858 13.4646ZM161.124 32.1195C160.673 32.1195 160.297 31.7433 160.297 31.292C160.297 30.8407 160.673 30.4646 161.124 30.4646C161.575 30.4646 161.951 30.8407 161.951 31.292C161.951 31.7433 161.575 32.1195 161.124 32.1195ZM161.124 30.2389C160.597 30.2389 160.146 30.6902 160.146 31.2168C160.146 31.7433 160.597 32.1947 161.124 32.1947C161.651 32.1947 162.102 31.7433 162.102 31.2168C162.102 30.6902 161.651 30.2389 161.124 30.2389Z" fill="#231F20"/>
<path d="M161.049 31.2168H160.823V30.8407H161.124C161.274 30.8407 161.425 30.8407 161.425 30.9911C161.425 31.2168 161.274 31.2168 161.049 31.2168ZM161.65 30.9911C161.65 30.7655 161.575 30.6902 161.274 30.6902H160.748V31.8186H160.898V31.292H161.124L161.425 31.8186H161.575L161.274 31.292C161.5 31.292 161.65 31.2168 161.65 30.9911Z" fill="#231F20"/>
<path d="M28.8849 28.8849C27.907 28.8849 27.1548 29.6372 27.1548 30.615C27.1548 31.5929 27.907 32.3451 28.8849 32.3451C29.7875 32.3451 30.615 31.5929 30.615 30.615C30.615 29.6372 29.8628 28.8849 28.8849 28.8849ZM28.8849 32.0442C28.0574 32.0442 27.4557 31.4425 27.4557 30.615C27.4557 29.7876 28.0574 29.1858 28.8849 29.1858C29.7123 29.1858 30.3141 29.7876 30.3141 30.615C30.3141 31.4425 29.7875 32.0442 28.8849 32.0442Z" fill="#008BCC"/>
<path d="M29.7875 30.1637C29.7875 29.7876 29.6371 29.6371 29.1105 29.6371H28.2831V31.5929H28.5088V30.7655H28.9601L29.4866 31.5929H29.7875L29.1858 30.7655C29.5619 30.6902 29.7875 30.5398 29.7875 30.1637ZM28.8849 30.4646H28.5088V29.8628H29.0353C29.261 29.8628 29.4866 29.8628 29.4866 30.1637C29.5619 30.5398 29.1105 30.4646 28.8849 30.4646ZM15.345 19.1062C15.2698 19.1062 15.2698 19.1062 15.1946 19.1814L12.3362 23.5442C13.2388 23.9203 14.2167 24.146 15.2698 24.146C16.3229 24.146 17.3008 23.9203 18.2035 23.5442L15.345 19.1814C15.4203 19.1062 15.345 19.1062 15.345 19.1062ZM12.5619 15.4956L8.27425 15.1194C8.12381 15.646 8.04858 16.2478 8.04858 16.8495C8.04858 18.6548 8.72558 20.3097 9.77867 21.5885L12.7875 15.8717C12.938 15.7212 12.8627 15.5708 12.5619 15.4956Z" fill="#008BCC"/>
<path d="M22.115 10.0044V1.50439H8.5V10.0044H0V23.6194H8.5V32.1194H22.115V23.6194H30.615V10.0044H22.115ZM15.3451 8.42475C18.7301 8.42475 21.6637 10.3805 22.9425 13.3141H16.9248C16.0973 13.3141 15.7212 12.7876 15.646 12.4115C15.646 11.9601 15.7212 11.8097 16.0973 11.2832C16.5487 10.6814 16.2478 9.62829 15.2699 9.55307C14.292 9.55307 13.9911 10.6814 14.4425 11.2832C14.8186 11.8097 14.8938 11.9601 14.8938 12.4115C14.8938 12.7876 14.5177 13.3141 13.615 13.3141H7.59734C9.02655 10.4557 11.9602 8.42475 15.3451 8.42475ZM6.92035 16.8495C6.92035 15.7964 7.14602 14.8186 7.4469 13.9159L13.0885 14.4424C14.1416 14.5929 14.292 15.646 13.9911 16.2478L10.1549 23.5442C8.19911 21.9646 6.92035 19.5575 6.92035 16.8495ZM19.9336 23.9203C18.5796 24.823 17 25.2743 15.2699 25.2743C13.5398 25.2743 11.9602 24.7478 10.6062 23.9203L14.7434 17.8274C15.0442 17.3761 15.4956 17.4513 15.7965 17.8274L19.9336 23.9203ZM20.5354 23.469L16.6991 16.2478C16.3982 15.646 16.5487 14.5929 17.6018 14.4424L23.2434 13.9159C23.6195 14.8186 23.7699 15.8716 23.7699 16.8495C23.7699 19.5575 22.4911 21.9646 20.5354 23.469Z" fill="#008BCC"/>
<path d="M20.8363 12.1106C19.9337 11.0575 18.7301 10.23 17.3761 9.85394C17.8275 10.5309 17.4513 11.5088 17.0752 11.9601C17 12.0354 17.0752 12.1106 17.0752 12.1106H20.8363ZM18.1283 15.4955C17.8275 15.4955 17.8275 15.646 17.9027 15.7964L20.9115 21.5132C21.9646 20.2345 22.6416 18.5796 22.6416 16.7743C22.6416 16.1725 22.5664 15.5708 22.4159 15.0442L18.1283 15.4955ZM13.3142 9.92916C11.9602 10.3053 10.7567 11.1327 9.854 12.1858H13.6151C13.6903 12.1858 13.6903 12.1106 13.6151 12.0354C13.239 11.5088 12.8629 10.6062 13.3142 9.92916Z" fill="#008BCC"/>
<path d="M57.9956 1.50439C54.6859 3.15926 51.3761 4.06192 47.5398 4.06192C43.7036 4.06192 40.3938 3.15926 37.0841 1.50439C34.9027 5.79201 34.6018 12.7124 36.4823 18.5044C38.2876 24.0708 41.823 29.1858 47.5398 32.3451C53.3319 29.1858 56.792 24.0708 58.5974 18.5044C60.5531 12.7124 60.177 5.79201 57.9956 1.50439ZM56.4912 17.8274C54.8363 22.5663 52.354 26.7787 47.6151 29.7124C42.8761 26.7787 40.3186 22.5663 38.7389 17.8274C37.3097 13.615 36.9336 8.65041 38.5133 4.81413C40.9204 5.64156 42.2743 5.86723 43.5531 6.09289C44.7566 6.31855 45.8097 6.39377 47.6151 6.39377C49.3451 6.39377 50.4735 6.24333 51.677 6.09289C52.9558 5.86723 54.385 5.64156 56.7168 4.81413C58.2213 8.65041 57.9204 13.615 56.4912 17.8274Z" fill="#008BCC"/>
<path d="M51.6771 7.146C50.3231 7.29644 48.8939 7.44689 47.5399 7.44689C46.1859 7.44689 44.8319 7.29644 43.4027 7.146C42.0488 6.92034 40.6948 6.61945 39.2656 6.24335C38.2877 9.10175 38.4381 12.7124 39.2656 15.8717C40.6948 21.8894 44.3806 26.4779 47.5399 28.5088C50.7744 26.4779 54.385 21.8894 55.8142 15.8717C56.5664 12.6372 56.7921 9.10175 55.8142 6.24335C54.385 6.61945 53.1063 6.99556 51.6771 7.146ZM46.7877 25.7256C46.7125 26.0265 46.8629 26.177 46.8629 26.3274C46.7877 26.5531 46.6372 26.4779 46.562 26.3274C46.4116 26.1018 46.3364 25.9513 46.3364 25.5752C46.2611 24.9734 46.562 24.7478 46.7125 24.5973C46.8629 24.4469 47.0134 24.3717 47.0134 24.3717L47.0886 25.3495C46.9381 25.3495 46.7877 25.4248 46.7877 25.7256ZM48.0664 26.7035C48.0664 26.854 47.9912 27.0044 47.6903 27.0044C47.4647 27.0044 47.3142 26.9292 47.3142 26.6283C47.239 25.4248 47.239 23.2433 47.239 23.2433C47.239 23.2433 47.5399 23.3186 47.7656 23.469C47.8408 23.469 47.9912 23.6195 48.1417 23.7699C48.1417 23.8451 48.2169 23.8451 48.2169 23.9203C48.1417 24.7478 48.0664 26.3274 48.0664 26.7035ZM49.0443 24.4469C48.7434 24.6726 48.4426 24.7478 48.4426 24.7478V23.8451C48.4426 23.8451 48.5178 23.7699 48.5178 23.6195C48.4426 23.469 47.8408 23.0177 47.5399 22.8672C47.1638 22.7168 46.7125 22.5664 46.4116 22.4911C45.6594 22.1902 45.3585 21.5133 45.6594 20.761C45.7346 20.4602 46.1107 20.3097 46.2611 20.2345C46.4116 20.1593 46.7125 20.0841 46.7125 20.0841L46.7877 21.1372C46.7877 21.1372 46.7125 21.1372 46.6372 21.2876C46.562 21.438 46.7125 21.5885 46.7877 21.5885C47.3142 21.8141 47.9912 22.115 48.5178 22.4159C49.1948 22.792 49.4204 23.0929 49.4204 23.6195C49.4956 23.9956 49.27 24.2964 49.0443 24.4469ZM47.1638 19.5575C47.6903 19.6327 47.8408 19.6327 48.2921 19.708L48.2169 21.8141L47.7656 21.5885L47.3142 21.3628L47.1638 19.5575ZM50.1726 20.0088C50.0974 20.3849 49.8718 20.6858 49.4957 20.9115C49.1195 21.1372 48.6682 21.1372 48.6682 21.1372V19.8584C48.6682 19.8584 48.7434 19.8584 48.8187 19.7832C48.8939 19.7079 48.8939 19.6327 48.8939 19.5575C48.8939 19.4823 48.8187 19.4071 48.7434 19.3318C48.593 19.2566 48.4426 19.2566 48.3673 19.2566L46.562 19.031C45.5089 18.8805 44.6815 18.2035 44.7567 17.1504C44.8319 16.4734 45.5089 16.2478 46.0355 16.0221L46.4116 16.7743C46.4868 17.0752 46.562 17.2256 46.562 17.2256C46.562 17.2256 46.3364 17.3009 46.3364 17.4513C46.3364 17.6018 46.562 17.677 46.6372 17.677C47.3895 17.7522 48.4426 17.9026 48.9691 18.1283C49.3452 18.2787 49.6461 18.4292 49.8718 18.7301C50.1726 19.2566 50.2479 19.6327 50.1726 20.0088ZM46.7125 15.1195C46.7125 15.1195 46.9381 15.1195 47.6151 15.1947C48.0664 15.1947 48.4426 15.3451 48.4426 15.3451L48.3673 17.6018C47.8408 17.5265 47.5399 17.4513 47.0886 17.3761C46.9381 16.5487 46.7125 16.2478 46.4116 15.646C46.3364 15.4956 46.4116 15.4203 46.4116 15.4203C46.4868 15.3451 46.7877 15.2699 46.7877 15.2699L46.7125 15.1195ZM48.7434 17.3761C48.7434 17.3761 48.8187 16.323 48.8187 15.7964C49.1195 15.7212 49.1948 15.4203 49.0443 15.1947C48.9691 15.0442 48.7434 14.969 48.6682 14.969C48.0664 14.8186 47.5399 14.8186 46.9381 14.7433C46.4116 14.6681 45.9603 14.5929 45.5089 14.5177C44.5311 14.292 43.6284 13.7655 43.1771 12.8628C42.6505 11.7345 43.1018 10.3053 44.2302 9.77875C45.0576 9.32742 45.9603 9.40264 46.7877 9.77875C47.0886 9.85397 47.239 10.1549 47.3895 10.3805C47.4647 10.4557 47.6151 10.531 47.6903 10.6814C47.7656 10.7566 47.6151 10.7566 47.6151 10.7566C47.4647 10.8318 46.7877 10.8318 46.6372 10.7566H45.7346C45.9603 10.9071 46.2611 11.0575 46.562 11.2079C46.7125 11.2832 46.8629 11.2832 47.0134 11.3584C47.0886 11.3584 47.239 11.4336 47.239 11.5088C47.239 11.5841 47.0886 11.5841 46.9381 11.6593C46.7125 11.7345 46.4116 11.7345 46.1107 11.6593C45.6594 11.5841 45.4337 11.2832 45.1328 11.4336C44.9072 11.5841 44.9072 11.8097 44.9824 12.1106C45.0576 12.5619 45.5089 12.7124 45.885 12.8628C47.1638 13.3141 48.593 13.0133 49.7965 13.6903C50.2479 13.9159 50.8496 14.4425 50.9249 14.969C51.301 17.0752 48.7434 17.3761 48.7434 17.3761ZM51.0001 10.3805C50.9249 10.6062 50.8496 10.6062 50.6992 10.7566C50.3983 11.0575 49.947 11.3584 49.4957 11.7345C49.1948 11.9602 48.9691 12.1106 48.7434 12.4867C48.6682 12.5619 48.593 12.7124 48.593 12.7124C47.8408 12.5619 47.1638 12.5619 46.562 12.4115V11.8097C46.562 11.8097 47.239 11.8097 47.3142 11.3584C47.3142 11.3584 47.3142 11.2079 47.239 11.1327C47.1638 11.0575 46.9381 10.9823 46.8629 10.9823C47.3895 11.0575 47.916 11.2832 48.4426 11.5088C48.4426 11.4336 48.3673 11.2079 48.3673 11.2079C48.2921 11.1327 48.2169 11.0575 47.9912 10.9823C47.6903 10.9071 46.8629 10.8318 46.8629 10.8318H47.5399C47.6903 10.8318 47.916 10.7566 47.916 10.6814C47.9912 10.6062 47.916 10.4557 47.7656 10.3053L47.5399 10.0796C47.4647 9.92919 47.3142 9.77875 47.239 9.6283C47.0886 9.40264 46.4868 9.17698 46.4868 9.17698C46.4868 9.17698 46.4116 8.80087 46.562 8.65043C46.6372 8.49998 46.9381 8.49998 47.0134 8.57521C47.3895 8.80087 47.916 9.02653 48.4426 9.17698C48.593 9.2522 48.593 9.2522 48.593 9.47786C48.6682 9.85397 48.5178 10.3805 48.593 10.6062C48.593 10.6814 48.7434 10.6814 48.7434 10.6814C49.27 10.3805 49.5709 9.92919 50.0974 9.70352C50.4735 9.55308 51.1505 9.85397 51.0001 10.3805ZM58.1461 28.9602C57.2434 28.9602 56.4912 29.7124 56.4912 30.615C56.4912 31.5177 57.2434 32.2699 58.1461 32.2699C59.0487 32.2699 59.801 31.5177 59.801 30.615C59.801 29.7124 59.0487 28.9602 58.1461 28.9602ZM58.1461 32.0442C57.3187 32.0442 56.7169 31.4425 56.7169 30.615C56.7169 29.7876 57.3187 29.1858 58.1461 29.1858C58.9735 29.1858 59.5753 29.7876 59.5753 30.615C59.5753 31.4425 58.9735 32.0442 58.1461 32.0442Z" fill="#008BCC"/>
<path d="M59.0486 30.1637C59.0486 29.7876 58.8981 29.6371 58.3716 29.6371H57.5441V31.5929H57.7698V30.7654H58.1459L58.6725 31.5929H58.9733L58.3716 30.7654C58.7477 30.6902 59.0486 30.5398 59.0486 30.1637ZM58.1459 30.5398H57.7698V29.938H58.2963C58.522 29.938 58.7477 29.938 58.7477 30.2389C58.7477 30.5398 58.3716 30.5398 58.1459 30.5398ZM45.9601 9.85393C46.1105 10.0044 46.1105 10.1548 46.3362 10.1548C46.4866 10.1548 46.5618 10.0796 46.6371 10.0044H46.7875C46.5618 9.77871 46.0353 9.77871 45.6592 9.70349C45.8096 9.85393 45.8848 9.77871 45.9601 9.85393Z" fill="#008BCC"/>
</g>
<defs>
<clipPath id="clip0">
<rect width="162.478" height="34" fill="white"/>
</clipPath>
</defs>
</svg>
